<?xml version="1.0" encoding="utf-8"?>
<!-- Generator: Adobe Illustrator 22.0.0, SVG Export Plug-In . SVG Version: 6.00 Build 0)  -->
<svg version="1.1" id="Capa_1" xmlns="http://www.w3.org/2000/svg" xmlns:xlink="http://www.w3.org/1999/xlink" x="0px" y="0px"
	 viewBox="0 0 425 150" style="enable-background:new 0 0 425 150;" xml:space="preserve">
<style type="text/css">
	.st0{fill:#AEADB3;}
	.st1{fill:#156D6D;}
	.st2{fill:#9A999E;}
</style>
<g>
	<g>
		<path class="st0" d="M144.8,18.8H26.1c-3.5,0-6.4,2.8-6.4,6.4v74.5c0,3.5,2.8,6.4,6.4,6.4h44.4v14.4H53.2c-3.2,0-5.9,2.6-5.9,5.9
			c0,3.2,2.6,5.9,5.9,5.9h64.5c3.2,0,5.9-2.6,5.9-5.9c0-3.2-2.6-5.9-5.9-5.9h-17.3V106h44.4c3.5,0,6.4-2.8,6.4-6.4V25.2
			C151.2,21.7,148.3,18.8,144.8,18.8L144.8,18.8z M141.6,96.5H29.3V28.4h112.3V96.5z M141.6,96.5"/>
		<path class="st0" d="M49.8,66l20.1,9.3c0.5,0.2,1.1,0.4,1.6,0.4c0.7,0,1.5-0.2,2.1-0.6c1.1-0.7,1.8-2,1.8-3.3v-0.1
			c0-1.5-0.9-2.9-2.3-3.5l-12.6-5.8l12.6-5.8c1.4-0.6,2.3-2,2.3-3.5v-0.1c0-1.3-0.7-2.6-1.8-3.3C73,49.2,72.3,49,71.6,49
			c-0.6,0-1.1,0.1-1.6,0.4l-20.1,9.3c-1.4,0.6-2.3,2-2.3,3.5v0.3C47.6,64,48.5,65.4,49.8,66L49.8,66z M49.8,66"/>
		<path class="st0" d="M75.6,85c0.7,1,1.9,1.6,3.1,1.6h0.1c1.7,0,3.2-1.1,3.7-2.7l13.2-41c0.4-1.2,0.2-2.5-0.6-3.5
			c-0.7-1-1.9-1.6-3.2-1.6H92c-1.7,0-3.2,1.1-3.7,2.7l-13.2,41C74.7,82.7,74.9,84,75.6,85L75.6,85z M75.6,85"/>
		<path class="st0" d="M95.4,53c0,1.5,0.9,2.9,2.3,3.5l12.6,5.8l-12.6,5.8c-1.4,0.6-2.3,2-2.3,3.5v0.1c0,1.3,0.7,2.6,1.8,3.3
			c0.6,0.4,1.4,0.6,2.1,0.6c0.6,0,1.1-0.1,1.6-0.4l20.1-9.3c1.4-0.6,2.3-2,2.3-3.5v-0.3c0-1.5-0.9-2.9-2.3-3.5L101,49.3
			c-0.5-0.2-1.1-0.4-1.6-0.4c-0.7,0-1.5,0.2-2.1,0.6c-1.1,0.7-1.8,1.9-1.8,3.3V53z M95.4,53"/>
	</g>
	<g>
		<path class="st1" d="M169.6,82.8c0.7,0.2,1.7,0.3,3,0.6c1.3,0.2,2.7,0.3,4.2,0.3c0.9,0,1.9-0.1,2.9-0.2c1-0.1,2-0.4,2.8-1
			c0.9-0.6,1.6-1.4,2.2-2.5c0.6-1.1,0.9-2.7,0.9-4.7V37h-12.2c-0.7-3.1-1-6.1-1-8.8c0-2.6,0.3-5.5,1-8.6h31.9v58
			c0,4.2-0.7,7.9-2,10.9c-1.3,3-3.2,5.4-5.5,7.3c-2.3,1.9-5,3.2-8.1,4.1c-3.1,0.9-6.4,1.3-10,1.3c-2.2,0-4.3-0.2-6.5-0.5
			c-2.2-0.3-4.1-0.8-5.8-1.3c-0.1-0.6-0.1-1.2-0.2-1.8c0-0.6-0.1-1.2-0.1-1.9C167.4,91.3,168.1,87,169.6,82.8z"/>
		<path class="st1" d="M263.7,99.5c-1.7,0.3-3.3,0.5-4.7,0.7c-1.4,0.1-2.8,0.2-4.1,0.2s-2.9-0.1-4.6-0.3c-1.7-0.2-3.7-0.5-5.9-0.8
			l25-79.6c1.9-0.2,3.7-0.4,5.4-0.6c1.7-0.1,3.4-0.2,5.1-0.2c1.4,0,3,0.1,4.6,0.2c1.7,0.1,3.6,0.3,5.7,0.6l24.6,79.7
			c-4.2,0.7-8,1-11.1,1c-1.5,0-3-0.1-4.5-0.2c-1.5-0.2-3.1-0.4-4.8-0.7L290.2,84c-2.1,0.6-4.1,1-6,1.3c-1.9,0.3-3.8,0.4-5.6,0.4
			c-1.7,0-3.5-0.1-5.2-0.4c-1.8-0.3-3.6-0.6-5.6-1.2L263.7,99.5z M279.3,40.7l-7.5,28.7c1.3,0.4,2.5,0.7,3.6,0.9
			c1.1,0.2,2.3,0.3,3.5,0.3c1.3,0,2.5-0.1,3.7-0.3c1.2-0.2,2.5-0.5,3.8-0.8L279.3,40.7z"/>
		<path class="st1" d="M397.8,57.9c0,2.6-0.3,5.5-1,8.7h-21.5v15.8h28c0.7,3.1,1,5.9,1,8.5c0,2.8-0.3,5.7-1,8.8h-47.7V19.6h47.1
			c0.3,1.6,0.5,3.2,0.7,4.6c0.1,1.4,0.2,2.8,0.2,4c0,2.5-0.3,5.4-0.9,8.8h-27.3v12.3h21.5C397.5,52.5,397.8,55.4,397.8,57.9z"/>
	</g>
	<g>
		<path class="st2" d="M172.3,117.4c1.2,0,2.1,0.1,3,0.4c0.8,0.3,1.5,0.6,2,1.1s0.9,1.1,1.2,1.8c0.2,0.7,0.4,1.5,0.4,2.3
			c0,0.9-0.1,1.7-0.4,2.4c-0.2,0.7-0.6,1.3-1.2,1.9c-0.5,0.5-1.2,0.9-2.1,1.2c-0.8,0.3-1.9,0.4-3.1,0.4c-0.7,0-1.3,0-1.9-0.1
			s-1.1-0.1-1.7-0.2v-11c0.6-0.1,1.2-0.1,1.9-0.2C171.1,117.4,171.7,117.4,172.3,117.4z M172.1,125.9c0.1,0,0.1,0,0.2,0
			c0.1,0,0.2,0,0.4,0c0.8,0,1.4-0.2,1.8-0.7s0.6-1.2,0.6-2.2c0-0.9-0.2-1.6-0.6-2s-0.9-0.6-1.6-0.6c-0.2,0-0.3,0-0.5,0
			c-0.1,0-0.2,0-0.3,0V125.9z"/>
		<path class="st2" d="M190.1,124.3c0.2,0.6,0.4,1,0.8,1.2s0.9,0.4,1.5,0.4c0.4,0,0.9,0,1.4-0.1c0.5-0.1,1-0.2,1.5-0.4
			c0.2,0.4,0.4,0.8,0.5,1.3c0.1,0.5,0.2,1,0.2,1.6c-1.3,0.5-2.6,0.7-3.9,0.7c-1,0-1.9-0.1-2.6-0.4c-0.7-0.3-1.3-0.7-1.8-1.2
			c-0.5-0.5-0.8-1.1-1-1.8c-0.2-0.7-0.3-1.5-0.3-2.3c0-0.8,0.1-1.6,0.3-2.3c0.2-0.7,0.6-1.3,1-1.9c0.5-0.5,1-0.9,1.7-1.2
			c0.7-0.3,1.5-0.5,2.4-0.5c0.8,0,1.4,0.1,2,0.4c0.6,0.3,1.1,0.6,1.5,1.1c0.4,0.4,0.7,1,0.9,1.6c0.2,0.6,0.3,1.3,0.3,2.1
			c0,0.4,0,0.7-0.1,1s-0.1,0.6-0.1,0.8H190.1z M191.8,120.1c-0.5,0-0.8,0.1-1.2,0.4c-0.3,0.3-0.5,0.7-0.6,1.3h3.4
			c0-0.5-0.2-0.9-0.5-1.2C192.7,120.3,192.3,120.1,191.8,120.1z"/>
		<path class="st2" d="M210.1,121.8c0.4,0.1,0.8,0.3,1.2,0.4c0.3,0.2,0.6,0.4,0.9,0.6c0.2,0.3,0.4,0.6,0.6,0.9
			c0.1,0.4,0.2,0.8,0.2,1.3c0,0.5-0.1,1-0.3,1.5c-0.2,0.5-0.5,0.9-1,1.2s-1,0.6-1.6,0.8c-0.6,0.2-1.4,0.3-2.2,0.3
			c-0.7,0-1.3,0-1.9-0.1c-0.6-0.1-1.2-0.3-1.9-0.5c0.1-1,0.3-1.9,0.8-2.9c0.5,0.2,0.9,0.4,1.4,0.5c0.5,0.1,1,0.2,1.5,0.2
			c0.2,0,0.3,0,0.5,0c0.2,0,0.3,0,0.5-0.1s0.3-0.1,0.4-0.2s0.1-0.2,0.1-0.3c0-0.2-0.1-0.3-0.3-0.4c-0.2-0.1-0.4-0.2-0.6-0.2
			l-1.4-0.4c-0.8-0.2-1.4-0.6-1.9-1.1c-0.5-0.5-0.7-1.2-0.7-2.1c0-0.6,0.1-1.1,0.3-1.5c0.2-0.5,0.5-0.8,1-1.2
			c0.4-0.3,0.9-0.6,1.5-0.7c0.6-0.2,1.2-0.3,1.9-0.3c0.5,0,1.1,0.1,1.8,0.2c0.6,0.1,1.3,0.3,1.9,0.5c0,0.5-0.1,0.9-0.3,1.5
			c-0.2,0.5-0.3,1-0.5,1.4c-0.4-0.2-0.8-0.3-1.4-0.4c-0.5-0.1-1-0.2-1.5-0.2c-0.7,0-1,0.2-1,0.6c0,0.2,0.1,0.3,0.2,0.4
			s0.3,0.2,0.5,0.2L210.1,121.8z"/>
		<path class="st2" d="M220.7,125.1c0-0.7,0.1-1.3,0.4-1.7c0.3-0.5,0.7-0.8,1.2-1.1s1-0.5,1.6-0.6c0.6-0.1,1.1-0.2,1.7-0.2h1.3
			c0-0.3-0.1-0.5-0.2-0.6c-0.1-0.2-0.3-0.3-0.5-0.4s-0.4-0.2-0.7-0.2c-0.2,0-0.5-0.1-0.7-0.1c-0.3,0-0.7,0-1.2,0.1
			c-0.5,0.1-0.9,0.2-1.4,0.4c-0.1-0.2-0.2-0.5-0.3-0.7c-0.1-0.2-0.2-0.4-0.2-0.6s-0.1-0.4-0.1-0.6c0-0.2,0-0.5,0-0.8
			c0.7-0.2,1.4-0.4,2-0.5c0.7-0.1,1.3-0.2,1.8-0.2c0.7,0,1.4,0.1,2,0.3s1.1,0.5,1.5,0.8c0.4,0.4,0.7,0.8,1,1.4
			c0.2,0.6,0.3,1.3,0.3,2.1v6.2c-0.5,0.2-1.2,0.3-2,0.5c-0.8,0.2-1.6,0.2-2.4,0.2c-0.7,0-1.4-0.1-2-0.2s-1.1-0.4-1.6-0.7
			c-0.4-0.3-0.8-0.7-1-1.2C220.8,126.4,220.7,125.8,220.7,125.1z M225.7,126.3c0.1,0,0.3,0,0.6,0c0.2,0,0.4-0.1,0.5-0.1v-2.3h-1.2
			c-0.5,0-0.9,0.1-1.3,0.3s-0.5,0.5-0.5,0.9c0,0.3,0.1,0.5,0.2,0.7s0.3,0.3,0.5,0.4c0.2,0.1,0.4,0.1,0.6,0.2
			C225.3,126.3,225.5,126.3,225.7,126.3z"/>
		<path class="st2" d="M238.8,117.7c0.7-0.1,1.4-0.2,2.1-0.2c0.7-0.1,1.4-0.1,2-0.1c1.7,0,3,0.3,3.9,1c0.9,0.6,1.3,1.6,1.3,2.7
			c0,0.4-0.1,0.8-0.1,1.2c-0.1,0.3-0.2,0.6-0.4,0.8c-0.1,0.2-0.3,0.4-0.4,0.6c-0.2,0.1-0.3,0.3-0.4,0.3l2.4,4.6
			c-0.3,0.1-0.6,0.1-0.9,0.1c-0.3,0-0.7,0-1,0c-0.4,0-0.8,0-1.2,0c-0.4,0-0.7-0.1-0.9-0.1l-2.4-5l0.3-0.2c0.5-0.3,0.8-0.6,1-0.9
			c0.2-0.3,0.3-0.7,0.3-1c0-0.4-0.1-0.7-0.3-0.9c-0.2-0.2-0.6-0.4-1.1-0.4c-0.3,0-0.5,0-0.6,0v8.4c-0.4,0.1-0.7,0.1-1,0.1
			c-0.3,0-0.6,0-0.8,0c-0.2,0-0.5,0-0.8,0s-0.6-0.1-1-0.1V117.7z"/>
		<path class="st2" d="M256.9,117.7c0.7-0.1,1.4-0.2,2.1-0.2c0.7-0.1,1.4-0.1,2-0.1c1.7,0,3,0.3,3.9,1c0.9,0.6,1.3,1.6,1.3,2.7
			c0,0.4-0.1,0.8-0.1,1.2c-0.1,0.3-0.2,0.6-0.4,0.8c-0.1,0.2-0.3,0.4-0.4,0.6c-0.2,0.1-0.3,0.3-0.4,0.3l2.4,4.6
			c-0.3,0.1-0.6,0.1-0.9,0.1c-0.3,0-0.7,0-1,0c-0.4,0-0.8,0-1.2,0c-0.4,0-0.7-0.1-0.9-0.1l-2.4-5l0.3-0.2c0.5-0.3,0.8-0.6,1-0.9
			c0.2-0.3,0.3-0.7,0.3-1c0-0.4-0.1-0.7-0.3-0.9c-0.2-0.2-0.6-0.4-1.1-0.4c-0.3,0-0.5,0-0.6,0v8.4c-0.4,0.1-0.7,0.1-1,0.1
			c-0.3,0-0.6,0-0.8,0c-0.2,0-0.5,0-0.8,0s-0.6-0.1-1-0.1V117.7z"/>
		<path class="st2" d="M274,123.2c0-0.9,0.1-1.7,0.4-2.4c0.2-0.7,0.6-1.3,1-1.8c0.5-0.5,1-0.9,1.7-1.2c0.7-0.3,1.5-0.4,2.4-0.4
			c0.9,0,1.7,0.1,2.4,0.4c0.7,0.3,1.3,0.7,1.7,1.2c0.5,0.5,0.8,1.1,1,1.8c0.2,0.7,0.4,1.5,0.4,2.4c0,0.9-0.1,1.6-0.4,2.3
			s-0.6,1.3-1,1.8c-0.5,0.5-1,0.9-1.7,1.2s-1.5,0.4-2.4,0.4c-0.9,0-1.7-0.1-2.4-0.4s-1.3-0.7-1.7-1.2c-0.5-0.5-0.8-1.1-1-1.8
			S274,124.1,274,123.2z M281.3,123.2c0-0.9-0.2-1.6-0.5-2.1c-0.3-0.5-0.8-0.7-1.4-0.7c-0.6,0-1.1,0.2-1.4,0.7
			c-0.3,0.5-0.4,1.2-0.4,2.1c0,0.9,0.1,1.6,0.4,2.1c0.3,0.5,0.8,0.7,1.4,0.7c0.6,0,1.1-0.2,1.4-0.7
			C281.2,124.8,281.3,124.1,281.3,123.2z"/>
		<path class="st2" d="M296.8,125.7h4c0.1,0.3,0.1,0.5,0.1,0.8c0,0.2,0,0.5,0,0.7s0,0.5,0,0.7c0,0.2-0.1,0.5-0.1,0.8h-7.6l0-11
			c0.3-0.1,0.6-0.1,0.9-0.1c0.3,0,0.6,0,0.9,0c0.3,0,0.6,0,0.9,0c0.3,0,0.6,0.1,0.9,0.1L296.8,125.7z"/>
		<path class="st2" d="M312.5,125.7h4c0.1,0.3,0.1,0.5,0.1,0.8c0,0.2,0,0.5,0,0.7s0,0.5,0,0.7c0,0.2-0.1,0.5-0.1,0.8h-7.6l0-11
			c0.3-0.1,0.6-0.1,0.9-0.1c0.3,0,0.6,0,0.9,0c0.3,0,0.6,0,0.9,0c0.3,0,0.6,0.1,0.9,0.1L312.5,125.7z"/>
		<path class="st2" d="M323.9,123.2c0-0.9,0.1-1.7,0.4-2.4c0.2-0.7,0.6-1.3,1-1.8c0.5-0.5,1-0.9,1.7-1.2c0.7-0.3,1.5-0.4,2.4-0.4
			c0.9,0,1.7,0.1,2.4,0.4c0.7,0.3,1.3,0.7,1.7,1.2c0.5,0.5,0.8,1.1,1,1.8c0.2,0.7,0.4,1.5,0.4,2.4c0,0.9-0.1,1.6-0.4,2.3
			s-0.6,1.3-1,1.8c-0.5,0.5-1,0.9-1.7,1.2s-1.5,0.4-2.4,0.4c-0.9,0-1.7-0.1-2.4-0.4s-1.3-0.7-1.7-1.2c-0.5-0.5-0.8-1.1-1-1.8
			S323.9,124.1,323.9,123.2z M331.2,123.2c0-0.9-0.2-1.6-0.5-2.1c-0.3-0.5-0.8-0.7-1.4-0.7c-0.6,0-1.1,0.2-1.4,0.7
			c-0.3,0.5-0.4,1.2-0.4,2.1c0,0.9,0.1,1.6,0.4,2.1c0.3,0.5,0.8,0.7,1.4,0.7c0.6,0,1.1-0.2,1.4-0.7
			C331.1,124.8,331.2,124.1,331.2,123.2z"/>
		<path class="st2" d="M364.8,124l1.3-6.3c0.1,0,0.3-0.1,0.7-0.1c0.3,0,0.7,0,1,0c0.5,0,0.9,0,1.2,0s0.6,0.1,0.8,0.1l-3.5,11
			c-0.2,0.1-0.5,0.1-0.8,0.1s-0.6,0-0.9,0s-0.6,0-0.9,0s-0.6-0.1-0.9-0.1l-1.6-6c-0.3,1-0.5,2-0.8,3c-0.3,1.1-0.5,2-0.8,3
			c-0.3,0.1-0.6,0.1-0.9,0.1s-0.6,0-0.9,0s-0.6,0-0.9,0c-0.3,0-0.5-0.1-0.8-0.1l-3.3-11c0.2,0,0.4-0.1,0.8-0.1s0.8,0,1.3,0
			c0.4,0,0.7,0,1.1,0c0.3,0,0.6,0.1,0.7,0.1l1.4,6.5l1.5-6.5c0.2-0.1,0.5-0.1,0.8-0.1c0.3,0,0.6,0,0.9,0c0.3,0,0.6,0,0.9,0
			c0.3,0,0.6,0.1,0.9,0.1L364.8,124z"/>
		<path class="st2" d="M380.4,124.3c0.2,0.6,0.4,1,0.8,1.2s0.9,0.4,1.5,0.4c0.4,0,0.9,0,1.4-0.1c0.5-0.1,1-0.2,1.5-0.4
			c0.2,0.4,0.4,0.8,0.5,1.3c0.1,0.5,0.2,1,0.2,1.6c-1.3,0.5-2.6,0.7-3.9,0.7c-1,0-1.9-0.1-2.6-0.4c-0.7-0.3-1.3-0.7-1.8-1.2
			c-0.5-0.5-0.8-1.1-1-1.8c-0.2-0.7-0.3-1.5-0.3-2.3c0-0.8,0.1-1.6,0.3-2.3c0.2-0.7,0.6-1.3,1-1.9c0.5-0.5,1-0.9,1.7-1.2
			c0.7-0.3,1.5-0.5,2.4-0.5c0.8,0,1.4,0.1,2,0.4c0.6,0.3,1.1,0.6,1.5,1.1c0.4,0.4,0.7,1,0.9,1.6c0.2,0.6,0.3,1.3,0.3,2.1
			c0,0.4,0,0.7-0.1,1s-0.1,0.6-0.1,0.8H380.4z M382.1,120.1c-0.5,0-0.8,0.1-1.2,0.4c-0.3,0.3-0.5,0.7-0.6,1.3h3.4
			c0-0.5-0.2-0.9-0.5-1.2C383,120.3,382.6,120.1,382.1,120.1z"/>
		<path class="st2" d="M395.1,117.7c0.3,0,0.6-0.1,1-0.1s0.7-0.1,1.1-0.1c0.4,0,0.8,0,1.1-0.1c0.4,0,0.7,0,0.9,0
			c1.8,0,3.1,0.3,4,0.8s1.3,1.3,1.3,2.4c0,0.5-0.1,1-0.4,1.4c-0.2,0.4-0.6,0.7-1,1c0.6,0.2,1.1,0.5,1.5,0.9s0.6,1,0.6,1.7
			c0,1.3-0.5,2.2-1.4,2.7s-2.4,0.8-4.3,0.8c-0.5,0-1.1,0-1.9-0.1c-0.8,0-1.6-0.1-2.5-0.2V117.7z M398.7,121.9h1
			c0.5,0,0.9-0.1,1.1-0.4s0.3-0.5,0.3-0.7c0-0.2-0.1-0.5-0.3-0.7c-0.2-0.2-0.5-0.3-1.1-0.3c-0.2,0-0.3,0-0.5,0s-0.4,0-0.5,0V121.9z
			 M398.7,124.1v2.2c0,0,0.2,0,0.3,0c0.2,0,0.4,0,0.7,0c0.6,0,1-0.1,1.3-0.3c0.3-0.2,0.4-0.5,0.4-0.8c0-0.1,0-0.3-0.1-0.4
			s-0.1-0.3-0.3-0.4c-0.1-0.1-0.3-0.2-0.5-0.2c-0.2-0.1-0.5-0.1-0.9-0.1H398.7z"/>
	</g>
</g>
</svg>
